<svg xmlns="http://www.w3.org/2000/svg" viewBox="0 0 512 512">
  <rect width="512" height="512" rx="96" fill="#0a0a0a"/>
  <rect width="512" height="512" rx="96" fill="url(#grad)"/>
  <defs>
    <linearGradient id="grad" x1="0%" y1="0%" x2="100%" y2="100%">
      <stop offset="0%" style="stop-color:#1a1a1a"/>
      <stop offset="100%" style="stop-color:#0f0f0f"/>
    </linearGradient>
  </defs>
  <!-- Flame icon -->
  <path d="M256 100 C256 100 310 160 310 220 C310 240 300 255 286 262 C292 245 288 228 278 218 C278 218 270 270 240 285 C245 270 242 255 234 245 C220 270 210 295 220 320 C200 305 188 280 188 255 C188 220 210 190 230 170 C222 195 228 215 240 225 C235 195 242 140 256 100Z" fill="#84cc16"/>
  <!-- 30 text -->
  <text x="256" y="420" text-anchor="middle" font-family="system-ui, -apple-system, sans-serif" font-weight="800" font-size="90" fill="#84cc16">30</text>
  <text x="256" y="470" text-anchor="middle" font-family="system-ui, -apple-system, sans-serif" font-weight="500" font-size="36" fill="#52525b" letter-spacing="4">DÍAS</text>
</svg>
